<?xml version="1.0" encoding="utf-8"?>
<!-- Generator: Adobe Illustrator 18.1.1, SVG Export Plug-In . SVG Version: 6.00 Build 0)  -->
<!DOCTYPE svg PUBLIC "-//W3C//DTD SVG 1.1//EN" "http://www.w3.org/Graphics/SVG/1.1/DTD/svg11.dtd">
<svg version="1.1" id="Layer_1" xmlns="http://www.w3.org/2000/svg" xmlns:xlink="http://www.w3.org/1999/xlink" x="0px" y="0px"
	 viewBox="0 0 288 288" style="enable-background:new 0 0 288 288;" xml:space="preserve">
<style type="text/css">
	.st0{fill:none;}
</style>
<path d="M32.5,184.9"/>
<path class="st0" d="M248.1,152.9c-0.3,0-0.5,0-0.8,0c-0.8,0-1.6,0-2.4,0c-0.5,0-1,0.1-1.5,0.1l-0.3,0c-1.4,0.2-2.9,0.6-4.5,1.1
	c-1.6,0.5-1.8,0.7-3.3,1.4c-1.5,0.8-2.6,1.6-3.7,2.5l20.7-5c-0.5,0-1.1,0.1-1.7,0.1C249.8,153,248.9,153,248.1,152.9z"/>
<path class="st0" d="M53.8,187.3c21.2,2.7,57.5,6.3,96.5,6.3c33.1,0,62-2.6,86.4-7.6C166.8,197.5,88.2,191.1,53.8,187.3z"/>
<path class="st0" d="M142.1,145.3c0.5,0.1,1,0.2,1.6,0.3"/>
<path d="M34.5,184.6c0.2,0,7.4,1.2,19.3,2.7c34.4,3.8,113,10.2,182.9-1.3c6.5-1.4,12.7-2.9,18.6-4.6c5.5-3.8,16.6-14.2,4-30.2
	l-3.1,0.8c-0.5,0.2-1.1,0.4-1.6,0.6c-0.7,0.2-1.4,0.3-2.2,0.4l-20.7,5c-0.3,0.3-0.6,0.5-1,0.8c-0.5,0.5-1.1,0.9-1.7,1.4
	c-3.4,2.7-6.8,4-10.4,4c-0.5,0-1,0-1.5-0.1l-0.4,0.3L193.5,183l-56.9-15.1l-24.6-6.5c-3.9,3.3-8.8,5.5-13.9,6.5
	c-2.3,0.4-4.6,0.7-6.9,0.7c-3.8,0-7.4-0.6-10.7-1.9c-3.1-1.2-5.8-2.7-8.4-4.7c-0.7-0.6-1.4-1.2-2.1-1.8l-7.6,0l-16.9,0l-10.3,0
	l-9.6,0c0,0-1.2,2.8-2,6.6c-1.4,6.9-1.5,16.8,9.7,18l0-0.6L34.5,184.6z"/>
<path d="M91.2,165c2,0,4.1-0.2,6.2-0.6c5.3-1,10.2-3.6,14-7.3l0.5-0.5l0.7-0.1c1.5-0.1,2.9-0.4,4.3-0.7c0.8-0.2,1.6-0.4,2.4-0.6
	c0.3-0.1,0.7-0.2,1-0.3l0.2-0.1l0.4,0c0.2,0,0.5,0,0.8,0c4.2,0.1,7.9,0.9,12.3,2.1c2,0.5,4,1.1,5.9,1.7c6.9,2,13.4,3.9,20.3,4
	c0.2,0,0.3,0,0.5,0c12.1,0,18.3-5.2,20.9-8.3c0,0,0.1-0.1,0.1-0.1l0.5-0.7l0.8-0.1c1.6-0.1,3.2-0.2,4.8-0.2l0.2,0
	c3.5,0,6.4,0.3,9.5,0.9c3.4,0.7,6.7,1.7,9.8,2.9c0.1,0,0.2,0.1,0.2,0.1l0.1,0l1.4,0.6c0.9,0.4,1.9,0.8,2.9,1.2
	c1.8,0.7,3.5,1.2,5.3,1.4c3.2,0.4,6.3-0.6,9.5-3.1c0.6-0.5,1.2-0.9,1.7-1.4c1.6-1.3,3-2.5,5.2-3.7c1.6-0.9,2.1-1.1,3.9-1.7
	c1.8-0.6,3.6-1,5.2-1.2l0.2,0l0.3,0c0.5,0,1.1-0.1,1.6-0.1c0.9,0,1.8,0,2.7,0c0.3,0,0.5,0,0.8,0c0.8,0,1.6,0.1,2.4,0.1
	c1.2,0,2.1-0.1,3-0.3c3.9-1,6.4-4.8,5.5-8.4c-0.3-1.4-1.7-2.1-2.9-2.1c-6.1-0.2-11.6,1.9-17.4,4.2c-4,1.6-8.1,3.2-12.5,4
	c-1,0.2-2.3,0.3-3.7,0.4c-1.4,0-2.8,0-4.4-0.1c-3-0.2-5.2-0.5-8.1-1l-1.2-0.2c-4.5-0.7-9.2-1.5-13.7-1.5c-0.8,0-1.7,0-2.5,0.1
	c-5.7,0.4-11.3,1.7-16.6,3.1l-0.9,0.2c-2.3,0.6-4.7,1.2-7.1,1.8c-2.8,0.6-5.2,1-7.9,1.2c-1,0.1-2.1,0.1-3.1,0.1
	c-4.8,0-9.3-0.8-14-1.6c-7-1.3-12.8-1.9-18.2-2c-1,0-2.1,0-3.2,0c-2.8,0-5.6,0.1-8.3,0.1c-2.6,0.1-5.4,0.1-8.1,0.1l-0.3,0
	c-6.3,0-10.9-0.3-15.3-1.1l-0.1,0l-0.3-0.1c-0.2,0-0.4-0.1-0.6-0.1c-9.4-2.3-18.8-3.2-29.9-3.8c-1.4-0.1-2.6-0.2-3.7-0.3l-0.2,0
	c-0.4-0.1-0.8-0.1-1.2-0.2c-0.7-0.1-1.3-0.3-1.8-0.4c-0.6-0.2-1.2-0.3-1.8-0.5c-0.3-0.1-0.5-0.2-0.8-0.3c-0.1,0-0.3-0.1-0.4-0.2l0,0
	c-0.8-0.4-1.4-0.8-2.1-1.2c-0.3-0.2-0.6-0.4-0.9-0.5c-1.4-0.8-4.2-2.1-6.9-2.1c-0.5,0-1.1,0.1-1.5,0.2l-0.2,0l-0.2,0
	c-0.4,0-0.7,0.1-1.1,0.1l-0.7,0.1l-0.7-0.4c-0.5-0.3-1-0.4-1.5-0.4c-1,0-2,0.6-2.7,1.5c-2.8,4.1-3.6,7.3-2.8,10.1
	c0.9,2.7,3.7,4.8,6.7,4.9c0.7,0,1.4-0.1,2.1-0.4l0.6-0.2l0.6,0.2c1.4,0.4,2.8,0.6,4.4,0.6c3.3,0,6.6-0.8,9.9-1.5
	c0.5-0.1,0.9-0.2,1.4-0.3c0.5-0.1,1.2-0.3,1.9-0.4c0.4-0.1,0.8-0.2,1.2-0.2l0.3-0.1l0.3,0.1c1.3,0.2,2.5,0.5,3.8,0.9
	c2.8,0.8,5.4,1.8,7.6,2.8l0.3,0.1l0.2,0.2c0.6,0.5,1.1,1,1.7,1.6c1.2,1.2,2.4,2.3,3.7,3.3c2.2,1.8,4.7,3.1,7.4,4.1
	C84.6,164.4,87.8,165,91.2,165z"/>
<path d="M150.4,197c-55.9,0-106.1-7.5-114.9-8.8c0,4.1,1.6,7.8,4.7,11.3c20.1,22,96.4,23.4,97.1,23.4l0,0c6.6,0.3,13.1,0.4,19.2,0.4
	c32,0,74.4-4.2,94.3-24.2c6-6,8.3-12.1,8.9-15.6C231.3,192.4,194.5,197,150.4,197z"/>
<g>
	<path d="M146.2,65.2c0.1,0,0.2,0,0.4,0c1.9,0,3.6-2.1,4.8-5.8C149,60.7,146.1,62.7,146.2,65.2z"/>
	<path d="M129.3,53.6c-2.3,1.2-5.2,3.3-5.2,5.7c0.1,0,0.2,0,0.4,0C126.5,59.4,128.1,57.3,129.3,53.6z"/>
	<path d="M166.6,86c0.2-0.3,0.5-0.8,0.5-1.5c0.1-1-0.3-2.9-3.1-5.8C163.9,81.3,164.3,84.9,166.6,86z"/>
	<path d="M125.5,79.3c0.1,0,0.2,0,0.4,0c1.9,0,3.6-2.1,4.8-5.8C128.4,74.8,125.5,76.8,125.5,79.3z"/>
	<path d="M234.2,81.1c-9-10.6-21.6-19.4-37.3-26c-26.5-11.2-53.2-12.4-54.1-12.5c-24.4,0-45.3,4.7-62.2,14
		C67.2,64,56.2,74.3,48.1,87.3c-12.3,19.7-14.3,39.7-14.6,44c2,0.5,4,1,6,1.5c1.8,0.1,3.5,0.6,5,1.2c27.2,6.1,56.7,9.3,87.8,9.3
		c62.6,0,112.5-12.7,119.3-14.6C251.2,110.2,245.3,94.2,234.2,81.1z M50.2,112.4C37.4,98,71.7,67.8,71.7,67.8
		C67,118.3,50.2,112.4,50.2,112.4z M85.7,66.9c-1.3,0-2.1-0.4-2.3-0.5L83,66.1l-0.1-0.6c-1.7-6.8,8.8-10.7,9.3-10.8l2.3-0.8
		l-0.5,2.4C92,65.1,88.4,66.9,85.7,66.9C85.7,66.9,85.7,66.9,85.7,66.9z M100.7,71.3c-1.9,8.8-5.5,10.7-8.2,10.7c0,0,0,0,0,0
		c-1.3,0-2.1-0.4-2.3-0.5l-0.5-0.3l-0.1-0.6c-1.7-6.8,8.8-10.7,9.3-10.8l2.3-0.8L100.7,71.3z M114.4,66.4c-1.2,2.3-3.4,2.6-3.6,2.7
		l-0.6,0.1l-0.5-0.4c-5.5-4.4,0.6-13.9,0.8-14.3l1.3-2.1l1,2.2C115.4,59.9,115.8,63.8,114.4,66.4z M121.8,61.3l-0.1-0.6
		c-1.7-6.8,8.8-10.7,9.3-10.8l2.3-0.8l-0.5,2.4c-1.9,8.8-5.5,10.7-8.2,10.7c0,0,0,0,0,0c-1.3,0-2.1-0.4-2.3-0.5L121.8,61.3z
		 M134.1,71.4c-1.9,8.8-5.5,10.7-8.2,10.7c0,0,0,0,0,0c-1.3,0-2.1-0.4-2.3-0.5l-0.5-0.3l-0.1-0.6c-1.7-6.8,8.8-10.7,9.3-10.8
		l2.3-0.8L134.1,71.4z M147.5,87.2c-0.2,4.4-1.1,7.7-2.7,9.7c-1.2,1.5-2.7,2.3-4.4,2.3c-0.8,0-1.3-0.2-1.4-0.2l-0.6-0.2l-0.2-0.5
		c-2.9-6.4,6.9-12,7.3-12.3l2.1-1.2L147.5,87.2z M154.7,57.3c-1.9,8.8-5.5,10.7-8.2,10.7c0,0,0,0,0,0c-1.3,0-2.1-0.4-2.3-0.5
		l-0.5-0.3l-0.1-0.6c-1.7-6.8,8.8-10.7,9.3-10.8l2.3-0.8L154.7,57.3z M169.8,84.8c-0.2,2.6-2,3.8-2.2,3.9l-0.5,0.3l-0.6-0.1
		c-6.8-1.7-5.2-12.9-5.1-13.3l0.4-2.4l1.9,1.6C167.9,78.4,170,81.8,169.8,84.8z M170,68.7l-0.5,0.3l-0.6-0.1
		c-6.9-1.4-5.8-12.6-5.7-13.1l0.3-2.5l1.9,1.5c4.4,3.5,6.7,6.8,6.6,9.8C171.9,67.3,170.2,68.6,170,68.7z M188.4,76.8
		c-0.2,2.6-2,3.8-2.2,3.9l-0.5,0.3l-0.6-0.1c-6.8-1.7-5.2-12.9-5.1-13.3l0.4-2.4l1.9,1.6C186.6,70.4,188.6,73.8,188.4,76.8z
		 M209.6,72.9c-0.3,2.6-2.1,3.7-2.3,3.8l-0.5,0.3l-0.6-0.2c-6.7-1.9-4.7-13-4.7-13.5l0.5-2.4l1.8,1.7
		C207.9,66.4,209.9,69.9,209.6,72.9z"/>
	<path d="M140.5,96.5c2.1,0,3.5-2.4,4.1-6.5C142.5,91.5,140,94,140.5,96.5z"/>
	<path d="M111,66.2c0.3-0.2,0.8-0.5,1.1-1.1c0.4-0.9,0.9-2.8-0.4-6.6C110.5,60.8,109.4,64.3,111,66.2z"/>
	<path d="M206.3,74c0.2-0.3,0.5-0.8,0.6-1.4c0.1-1-0.2-2.9-2.9-5.9C203.8,69.2,204.1,72.8,206.3,74z"/>
	<path d="M85.4,64.2c0.1,0,0.2,0,0.4,0c1.9,0,3.6-2.1,4.8-5.8C88.2,59.6,85.3,61.7,85.4,64.2z"/>
	<path d="M92.1,79.2c0.1,0,0.2,0,0.4,0c1.9,0,3.6-2.1,4.8-5.8C95,74.6,92.1,76.7,92.1,79.2z"/>
	<path d="M185.2,78c0.2-0.3,0.5-0.8,0.5-1.5c0.1-1-0.3-2.9-3.1-5.8C182.6,73.3,183,76.9,185.2,78z"/>
	<path d="M165.9,58.9c0.1,2.6,0.7,6.1,2.9,7.1c0.2-0.3,0.4-0.8,0.5-1.5C169.3,63.6,168.8,61.7,165.9,58.9z"/>
</g>
</svg>
