<?xml version="1.0" encoding="utf-8"?>
<!-- Generator: Adobe Illustrator 18.1.1, SVG Export Plug-In . SVG Version: 6.00 Build 0)  -->
<!DOCTYPE svg PUBLIC "-//W3C//DTD SVG 1.1//EN" "http://www.w3.org/Graphics/SVG/1.1/DTD/svg11.dtd">
<svg version="1.1" id="Layer_1" xmlns="http://www.w3.org/2000/svg" xmlns:xlink="http://www.w3.org/1999/xlink" x="0px" y="0px"
	 viewBox="0 0 288 288" style="enable-background:new 0 0 288 288;" xml:space="preserve">
<path d="M256.5,112.1c-6.2-9.6-15.1-18.3-26.4-25.7C207,71.3,176.5,63,144,63s-63,8.3-86.1,23.4c-11.3,7.4-20.2,16-26.4,25.7
	c-6.5,10.1-9.8,20.8-9.8,31.9c0,11.1,3.3,21.8,9.8,31.9c6.2,9.6,15.1,18.3,26.4,25.7C81,216.7,111.5,225,144,225s63-8.3,86.1-23.4
	c11.3-7.4,20.2-16,26.4-25.7c6.5-10.1,9.8-20.8,9.8-31.9C266.3,132.9,263,122.2,256.5,112.1z M242.3,112.7c0,3.2-3.6,5.7-8.1,5.7
	c-4.5,0-8.1-2.5-8.1-5.7c0-3.2,3.6-5.7,8.1-5.7C238.7,107,242.3,109.5,242.3,112.7z M214.5,120.5c0,3.2-3.6,5.7-8.1,5.7
	c-4.5,0-8.1-2.5-8.1-5.7c0-3.2,3.6-5.7,8.1-5.7C210.9,114.8,214.5,117.3,214.5,120.5z M144.1,176c0.8,3.5,2.5,6.6,5.3,8.8
	c0.9,0.7,1.6,1.4,2.8,0.9c1-0.5,1.1-1.3,1.2-2.3c0.3-1.6,0.3-3.2,0.8-4.7c0.9-2.5,4.9-1.4,4,1.1c-0.9,2.7-0.4,5.8-2.2,8.2
	c-1.4,1.9-3.8,2.6-6,1.9c-5.3-1.7-8.9-7.8-10-12.8C139.5,174.6,143.6,173.5,144.1,176z M139.4,160.4c0-3.2,3.6-5.7,8.1-5.7
	s8.1,2.5,8.1,5.7c0,3.2-3.6,5.7-8.1,5.7S139.4,163.6,139.4,160.4z M105.8,132.5c-2.1-1.7,0.9-4.6,2.9-2.9
	c14.9,12.3,35.2,9.9,53.1,7.4c2.6-0.4,3.8,3.6,1.1,3.9C143.4,143.7,122,145.8,105.8,132.5z M66,141.5c-0.1-0.5-3.8-6.5-3.2-6.9
	c-2.3,1.7-4.6-2.1-2.3-3.8c5.1-3.7,9.8,8.4,10.2,11.6c1.2,8.8-5,16-11.3,21.5c-2.2,1.9-5.4-1.2-3.2-3.1c3.8-3.2,7.6-6.8,9.3-11.6
	C66.4,146.7,66.7,144,66,141.5z M68.4,121.8c-4.5,0-8.1-2.5-8.1-5.7c0-3.2,3.6-5.7,8.1-5.7c4.5,0,8.1,2.5,8.1,5.7
	C76.5,119.3,72.9,121.8,68.4,121.8z M76.3,92.3C70,95.9,42,112.6,54.7,121.6c2.2,1.5,0.1,5.1-2.1,3.5c-13.7-9.7,3.3-23.8,11.4-29.7
	C78.3,85.1,94.7,78,111.9,74.2c2.6-0.6,3.7,3.4,1.1,3.9C100.1,81,87.7,85.6,76.3,92.3z M144,81.7c0,3.2-3.6,5.7-8.1,5.7
	c-4.5,0-8.1-2.5-8.1-5.7c0-3.2,3.6-5.7,8.1-5.7C140.4,76,144,78.5,144,81.7z M94.3,126.5c4.5,0,8.1,2.5,8.1,5.7
	c0,3.2-3.6,5.7-8.1,5.7c-4.5,0-8.1-2.5-8.1-5.7C86.1,129,89.7,126.5,94.3,126.5z M99.2,109.5c-4.5,0-8.1-2.5-8.1-5.7
	c0-3.2,3.6-5.7,8.1-5.7c4.5,0,8.1,2.5,8.1,5.7C107.3,107,103.7,109.5,99.2,109.5z M144.7,132.5c-19.5,0-35.4-7.4-35.4-16.4
	c0-9,15.9-16.4,35.4-16.4c19.5,0,35.4,7.4,35.4,16.4C180.1,125.1,164.2,132.5,144.7,132.5z M187.2,138.3c4.5,0,8.1,2.5,8.1,5.7
	c0,3.2-3.6,5.7-8.1,5.7c-4.5,0-8.1-2.5-8.1-5.7C179.1,140.8,182.7,138.3,187.2,138.3z M189.7,100.7c-4.5,0-8.1-2.5-8.1-5.7
	c0-3.2,3.6-5.7,8.1-5.7c4.5,0,8.1,2.5,8.1,5.7C197.8,98.2,194.2,100.7,189.7,100.7z M144,219.5c-64.4,0-116.8-33.8-116.8-75.5
	c0-11,3.6-21.4,10.2-30.8c-0.3,2.5-0.1,5.1,0.6,7.7c2.2,8.9,10.2,14.3,15.9,17.5c1.3,0.7,2.6,1.5,3.9,2.2c1,0.6,1.9,1.1,2.9,1.7
	l0.1,0.1l0,0.1c-1.6,6.7-4.5,13.1-8.8,19c-1.8,2.5-2,5.3-0.7,7.9c1.7,3.2,5.4,5.5,9.1,5.5c1.5,0,2.9-0.4,4.2-1.1l13.9-7.7l0,0
	c0.9-0.2,1.8-0.6,2.7-1.1l6-3.6l0.1,0c1.2,0.3,2.5,1.4,3.7,2.4l0,0c1.7,3.7,1.9,9.8,1.9,11.7c0,1-0.1,2.1-0.2,3.2
	c-0.5,7.2-1.3,17.1,6.7,19.2c0.8,0.2,1.6,0.3,2.4,0.3c7,0,10.2-8.9,10.9-14.1c0.5-3.4,1-6.9,3.5-10c1.3-1.6,2.9-3.2,5.1-4.9l0.1,0
	l0.1,0c3.2,1.2,6.2,3.2,8.7,5.5c2.4,2.3,4.1,5.3,5.7,8.1c3.4,5.9,6.6,11.4,14.8,11.6c0.1,0,0.2,0,0.3,0c5.1,0,9.9-3,12.4-7.7
	c1.2-2.3,1.7-4.7,2-6.6c0.1-0.5,0.1-1.1,0.2-1.7c0.1-1.5,0.3-3.2,0.9-4.2c1.1-1.7,2.6-2.5,4.6-2.5c5.4,0,12.7,5.9,15.8,8.5l0.3,0.3
	c2,1.6,4.3,2.5,6.7,2.5c4,0,7.4-2.5,8.8-6.5c0.2-0.4,0.3-0.9,0.5-1.4c2-5.8,5.1-14.5,12-15.3c0.2,0,0.4,0,0.6,0
	c2.1,0,3.5,1.4,4.9,2.9c0.4,0.4,0.9,0.9,1.3,1.3c4.5,4,9.1,6.1,13.8,6.2c0.2,0,0.3,0,0.5,0c2.2,0,4.2-0.4,5.9-1.2
	c1.8-0.8,3.3-1.9,4.6-3.4c3.4-4,4.9-10.6,3.9-17.1c-0.3-1.8-0.8-3.7-1.3-5.5c-0.7-2.5-1.5-5.1-1.6-7.7c0-1.3,0.2-2.1,0.5-3.3l0-0.1
	c0.1-0.2,0.1-0.4,0.2-0.5l0-0.1l0.1,0c3.2-0.3,6.4-2.4,7.9-5.1c0.2-0.3,0.4-0.7,0.5-1c2.4,6,3.6,12.3,3.6,18.7
	C260.8,185.6,208.4,219.5,144,219.5z"/>
</svg>
