<?xml version="1.0" encoding="utf-8"?>
<!-- Generator: Adobe Illustrator 18.1.1, SVG Export Plug-In . SVG Version: 6.00 Build 0)  -->
<!DOCTYPE svg PUBLIC "-//W3C//DTD SVG 1.1//EN" "http://www.w3.org/Graphics/SVG/1.1/DTD/svg11.dtd">
<svg version="1.1" id="Layer_1" xmlns="http://www.w3.org/2000/svg" xmlns:xlink="http://www.w3.org/1999/xlink" x="0px" y="0px"
	 viewBox="0 0 288 288" style="enable-background:new 0 0 288 288;" xml:space="preserve">
<g>
	<path d="M263,165.5c-34.1-5.1-65.6-13.5-93.8-25.2c-26.2-10.9-49.6-24.5-69.6-40.5C70.9,76.6,57.8,55.5,54,48.8
		c-10.4-4-15.9-1.6-15.9-1.6c-26.8,6.7-20,32.2-17.2,40.1c1.7-1.3,6.3-4.3,13.5-4.7c0.7,0,1.4,0,2,0c-0.1-0.3-0.1-0.7-0.1-1
		c0-0.4,0.1-0.9,0.2-1.3c0.3-0.7,0.6-1.1,1-1.7c0.5-0.7,1.5-0.9,2.4-1c0.3,0,0.6,0,0.8,0.1c1.2-0.4,2.6-0.1,3.4,0.8
		c1.1,1.2,1.6,3,1.1,4.7c-0.1,0.3-0.2,0.5-0.3,0.8c8.5,2.5,17.5,8.4,26.7,17.7c15.1,15.3,36.7,32.1,59.1,46.2
		c24.3,15.2,47.1,25.7,64.4,29.4c19.7,4.3,31.2,10.7,34.2,19.2c1.1,3,1.1,6.1,0,9.3c16.5,3.8,24.7,2,28.8-0.7c1-0.2,2-0.6,3-1
		c5-2.2,7.7-6.9,8.9-12c1.4-6,1.3-12.5-1-18.1C267.9,170.4,265.6,167.6,263,165.5z M38.1,59.9c-1.6,1.7-3.1,3.4-4.4,5.3
		c-1,1.5-2.9,2.2-4.6,1.2c-1.5-0.9-2.2-3.1-1.2-4.6c1.7-2.4,3.5-4.6,5.5-6.7c1.3-1.3,3.5-1.3,4.7,0C39.4,56.4,39.3,58.6,38.1,59.9z
		 M259.1,190.3c-1.6,0.8-3.6,0.5-4.6-1.2c-0.8-1.5-0.4-3.8,1.2-4.6c3.1-1.5,4.4-5.2,1.9-7.9c-2.9-3.1,1.8-7.9,4.7-4.7
		C267.6,177.5,266.3,186.9,259.1,190.3z"/>
	<path d="M67.4,60.3c6.6,8.7,18.1,22,35.5,36c19.6,15.7,42.6,29.1,68.4,39.7c26.9,11.1,56.9,19.3,89.4,24.3c0,0,0,0,0,0
		c-0.1-0.6-0.3-1.2-0.5-1.8c-0.2-0.6-0.4-1.2-0.7-1.8c-0.3-0.6-0.5-1.1-0.8-1.7c-0.3-0.6-0.6-1.1-1-1.6c-0.3-0.5-0.7-1-1.1-1.5
		c-0.4-0.5-0.8-1-1.2-1.5c-0.4-0.5-0.8-0.9-1.3-1.4c-0.4-0.5-0.9-0.9-1.4-1.3c-0.5-0.4-1-0.9-1.4-1.3c-0.5-0.4-1-0.8-1.5-1.2
		c-0.5-0.4-1-0.8-1.6-1.1c-0.5-0.4-1.1-0.7-1.6-1.1c-0.5-0.3-1.1-0.7-1.6-1c-7.9-4.8-16.8-7.9-25.7-10.4c-9-2.6-18.2-4.8-27.2-7.6
		c-33.4-10.3-67.4-27-85.8-58.2c-2-3.5-3.9-7.1-5.4-10.8c-0.3-0.7-0.9-1.2-1.5-1.5c-3.4-5-8.4-8.8-14.3-10.4
		c-8.8-2.4-18.6,0.2-25,6.6C61.7,52.4,64.1,56,67.4,60.3z M73,51c0.3-1.3,1.4-2.4,3.1-2.4c0.3,0,0.6,0,0.8,0.1
		c3.7-0.5,7.4-0.2,10.8,1.4c3.4,1.6,5.9,4.4,7.1,7.8c0.6,1.7-0.7,3.7-2.3,4.1c-1.8,0.5-3.5-0.6-4.1-2.3c-1.7-4.5-7.5-5-11.5-4.3
		c-1.8,0.3-3.6-0.5-4.1-2.3C72.7,52.5,72.7,51.7,73,51z"/>
	<path d="M221.6,210c2.4-3,4.8-7.4,3.2-11.9c-1.7-4.7-8.3-11.2-30.7-16.1c-17.8-3.9-41.2-14.6-65.9-30.1
		c-22.7-14.3-44.6-31.4-60-46.9C56.5,93.1,45,87,35.1,87.4c-7.4,0.3-11.3,3.9-11.5,4l-1.6-1.7c-1.8,3.8-3.2,7.8-3.8,12
		c-1.3,9.4,1.1,18.6,5.4,26.9c4.2,8.2,10.2,15.5,16.6,22.1c6.5,6.7,13.6,12.8,21,18.5c14.9,11.4,31.1,21.2,47.5,30.1
		c17.1,9.3,35.4,17.3,54.8,20.3c9.6,1.5,19.4,2,29.1,0.8c9.3-1.1,19.2-3.3,27.1-8.7c0.7-0.5,1.5-1,2.2-1.6L221.6,210z M35.7,128.1
		c-7.2-11.1-12.8-24.9-6.4-37.7c0.8-1.6,3.1-2.1,4.6-1.2c1.6,1,2,3,1.2,4.6c-5.2,10.4,0.6,22.1,6.4,31
		C43.8,128.4,38,131.7,35.7,128.1z"/>
</g>
</svg>
